<!DOCTYPE svg PUBLIC "-//W3C//DTD SVG 1.1//EN" "http://www.w3.org/Graphics/SVG/1.1/DTD/svg11.dtd">
<!-- Uploaded to: SVG Repo, www.svgrepo.com, Transformed by: SVG Repo Mixer Tools -->
<svg fill="#10244c" height="256px" width="256px" version="1.1" id="Capa_1" xmlns="http://www.w3.org/2000/svg" xmlns:xlink="http://www.w3.org/1999/xlink" viewBox="-49 -49 588.00 588.00" xml:space="preserve" stroke="#10244c" stroke-width="4.9">
<g id="SVGRepo_bgCarrier" stroke-width="0"/>
<g id="SVGRepo_tracerCarrier" stroke-linecap="round" stroke-linejoin="round" stroke="#ffffff" stroke-width="39.2"> <g> <path d="M467.031,43.707H22.969C10.336,43.707,0,54.043,0,66.676v273.073c0,12.633,10.336,22.969,22.969,22.969h183.75v52.951 h-69.863v30.625h216.289v-30.625h-69.863v-52.951h183.75c12.633,0,22.969-10.336,22.969-22.969V66.676 C490,54.043,479.664,43.707,467.031,43.707z M459.375,332.092H30.625V74.332h428.75V332.092z"/> <polygon points="203.967,233.686 128.362,203.704 203.967,174.799 203.967,144.069 95.584,190.979 95.584,217.073 203.967,264.199 "/> <polygon points="275.894,121.422 253.135,121.422 213.986,284.902 236.312,284.902 "/> <polygon points="394.417,191.195 285.928,144.286 285.928,174.589 361.638,204.026 285.928,233.791 285.928,264.311 394.417,217.073 "/> </g> </g>
<g id="SVGRepo_iconCarrier"> <g> <path d="M467.031,43.707H22.969C10.336,43.707,0,54.043,0,66.676v273.073c0,12.633,10.336,22.969,22.969,22.969h183.75v52.951 h-69.863v30.625h216.289v-30.625h-69.863v-52.951h183.75c12.633,0,22.969-10.336,22.969-22.969V66.676 C490,54.043,479.664,43.707,467.031,43.707z M459.375,332.092H30.625V74.332h428.75V332.092z"/> <polygon points="203.967,233.686 128.362,203.704 203.967,174.799 203.967,144.069 95.584,190.979 95.584,217.073 203.967,264.199 "/> <polygon points="275.894,121.422 253.135,121.422 213.986,284.902 236.312,284.902 "/> <polygon points="394.417,191.195 285.928,144.286 285.928,174.589 361.638,204.026 285.928,233.791 285.928,264.311 394.417,217.073 "/> </g> </g>
</svg>