<!DOCTYPE svg PUBLIC "-//W3C//DTD SVG 1.1//EN" "http://www.w3.org/Graphics/SVG/1.1/DTD/svg11.dtd">
<!-- Uploaded to: SVG Repo, www.svgrepo.com, Transformed by: SVG Repo Mixer Tools -->
<svg fill="#10244c" height="256px" width="256px" version="1.1" id="Layer_1" xmlns="http://www.w3.org/2000/svg" xmlns:xlink="http://www.w3.org/1999/xlink" viewBox="-48.5 -48.5 582.00 582.00" xml:space="preserve" stroke="#10244c" stroke-width="4.85">
<g id="SVGRepo_bgCarrier" stroke-width="0"/>
<g id="SVGRepo_tracerCarrier" stroke-linecap="round" stroke-linejoin="round" stroke="#ffffff" stroke-width="38.8"> <g> <path d="M380.926,115.57H321.93V0H163.07v115.57h-58.997L242.5,267.252L380.926,115.57z M193.07,145.57V30h98.859v115.57h21.003 L242.5,222.748l-70.433-77.178H193.07z"/> <path d="M0,310v175h485V310H0z M455,455H30V340h425V455z"/> <circle cx="330" cy="397.5" r="15"/> <circle cx="400" cy="397.5" r="15"/> </g> </g>
<g id="SVGRepo_iconCarrier"> <g> <path d="M380.926,115.57H321.93V0H163.07v115.57h-58.997L242.5,267.252L380.926,115.57z M193.07,145.57V30h98.859v115.57h21.003 L242.5,222.748l-70.433-77.178H193.07z"/> <path d="M0,310v175h485V310H0z M455,455H30V340h425V455z"/> <circle cx="330" cy="397.5" r="15"/> <circle cx="400" cy="397.5" r="15"/> </g> </g>
</svg>