<!DOCTYPE svg PUBLIC "-//W3C//DTD SVG 1.1//EN" "http://www.w3.org/Graphics/SVG/1.1/DTD/svg11.dtd">
<!-- Uploaded to: SVG Repo, www.svgrepo.com, Transformed by: SVG Repo Mixer Tools -->
<svg width="256px" height="256px" viewBox="-2 -2 24.00 24.00" xmlns="http://www.w3.org/2000/svg" fill="#10244c" stroke="#10244c" stroke-width="0.2">
<g id="SVGRepo_bgCarrier" stroke-width="0"/>
<g id="SVGRepo_tracerCarrier" stroke-linecap="round" stroke-linejoin="round" stroke="#ffffff" stroke-width="1.6"> <rect x="0" fill="none" width="20" height="20"/> <g> <path d="M13 3v2h2v10h-2v2h4V3h-4zm0 8V9H5.4l4.3-4.3-1.4-1.4L1.6 10l6.7 6.7 1.4-1.4L5.4 11H13z"/> </g> </g>
<g id="SVGRepo_iconCarrier"> <rect x="0" fill="none" width="20" height="20"/> <g> <path d="M13 3v2h2v10h-2v2h4V3h-4zm0 8V9H5.4l4.3-4.3-1.4-1.4L1.6 10l6.7 6.7 1.4-1.4L5.4 11H13z"/> </g> </g>
</svg>