<?xml version="1.0" encoding="utf-8"?>
<svg version="1.1" id="Livello_1" x="0px" y="0px" viewBox="0 0 578.9 500" enable-background="new 0 0 578.9 500" xmlns="http://www.w3.org/2000/svg">
  <defs>
    <radialGradient gradientUnits="userSpaceOnUse" cx="352.541" cy="326.094" r="85.45" id="gradient-0" gradientTransform="matrix(1.006319, 1.257477, -0.780767, 0.624822, 264.551459, -258.675898)">
      <stop offset="0" style="stop-color: rgba(231, 0, 85, 0.52);"/>
      <stop offset="1" style="stop-color: rgba(129, 0, 47, 0);"/>
    </radialGradient>
    <radialGradient gradientUnits="userSpaceOnUse" cx="290.959" cy="313.337" r="289.5" id="gradient-1" gradientTransform="matrix(0.999984, 0.005585, -0.005595, 1.001865, 1.835813, -2.371414)">
      <stop offset="0" style="stop-color: rgb(231, 0, 85); stop-opacity: 0.45;"/>
      <stop offset="1" style="stop-opacity: 0; stop-color: rgb(231, 0, 85);"/>
    </radialGradient>
  </defs>
  <g style="">
    <path d="M52.6,52.6h473.7v394.7H52.6V52.6z" style="stroke-opacity: 0; paint-order: fill; fill: rgb(37, 37, 42);"/>
    <path d="M394.7,263.2c16.4,0,29.6-13.3,29.6-29.6s-13.3-29.6-29.6-29.6s-29.6,13.3-29.6,29.6 S378.4,263.2,394.7,263.2L394.7,263.2z M394.7,282.9c-31.7,0-65.8,16.8-65.8,37.6v21.6h131.6v-21.6 C460.5,299.7,426.4,282.9,394.7,282.9z M184.2,263.2c16.4,0,29.6-13.3,29.6-29.6s-13.3-29.6-29.6-29.6s-29.6,13.3-29.6,29.6 S167.9,263.2,184.2,263.2L184.2,263.2z M184.2,282.9c-31.7,0-65.8,16.8-65.8,37.6v21.6H250v-21.6 C250,299.7,215.9,282.9,184.2,282.9z" style="stroke-opacity: 0; fill: rgb(231, 0, 86); fill-opacity: 0.4;"/>
    <path d="M289.5,236.8c21.8,0,39.5-17.7,39.4-39.5c0-21.8-17.7-39.5-39.5-39.4c-21.8,0-39.4,17.7-39.4,39.5 C250,219.2,267.7,236.8,289.5,236.8z M289.5,263.2c-44.4,0-92.1,23.6-92.1,52.6v26.3h184.2v-26.3 C381.6,286.7,333.9,263.2,289.5,263.2z" style="stroke-opacity: 0; fill: rgb(231, 0, 86);"/>
    <path d="M342.1,421.1h118.4v26.3H342.1V421.1z" style="stroke-opacity: 0; fill: rgb(231, 0, 86);"/>
    <path d="M539.5,0h-500C17.7,0,0,17.7,0,39.5v421.1C0,482.3,17.7,500,39.5,500h500c21.8,0,39.5-17.7,39.5-39.5V39.5 C578.9,17.7,561.3,0,539.5,0z M526.3,447.4H52.6V52.6h473.7V447.4z" style="stroke-opacity: 0; fill: rgb(255, 255, 255);"/>
    <path opacity="0.2" enable-background="new    " d="M539.5,0h-500C17.7,0,0,17.7,0,39.5v3.3C0,21,17.7,3.3,39.5,3.3 h500c21.8,0,39.5,17.7,39.5,39.5v-3.3C578.9,17.7,561.3,0,539.5,0z" style="stroke-opacity: 0; fill: rgb(231, 0, 85); fill-opacity: 0.04;"/>
    <path opacity="0.2" enable-background="new    " d="M539.5,496.7h-500C17.7,496.7,0,479,0,457.2v3.3 C0,482.3,17.7,500,39.5,500h500c21.8,0,39.5-17.7,39.5-39.5v-3.3C578.9,479,561.3,496.7,539.5,496.7z" style="stroke-opacity: 0; fill: rgb(231, 0, 86); fill-opacity: 0.15;"/>
    <path d="M460.3,447.4H341.9l52.6,52.6h118.3L460.3,447.4z" style="stroke-opacity: 0; fill: url('#gradient-0');"/>
    <path opacity="0.2" enable-background="new    " d="M52.6,49.3h473.7v3.3H52.6V49.3z" style="stroke-opacity: 0; fill: rgb(231, 0, 86);"/>
    <path opacity="0.2" enable-background="new    " d="M52.6,447.4h473.7v3.3H52.6V447.4z" style="stroke-opacity: 0; fill: rgb(231, 0, 86);"/>
    <radialGradient id="SVGID_2_" cx="131.4012" cy="367.2001" r="18.1966" gradientTransform="matrix(24.261368, 0.059347, 0.092954, -37.999886, -3202.161385, 13957.483229)" gradientUnits="userSpaceOnUse">
      <stop offset="0" style="stop-opacity: 0.1; stop-color: rgba(231, 0, 85, 0.57);"/>
      <stop offset="1" style="stop-opacity: 0; stop-color: rgba(231, 0, 85, 0);"/>
    </radialGradient>
    <path fill="url(#SVGID_2_)" d="M539.5,0h-500C17.7,0,0,17.7,0,39.5v421.1C0,482.3,17.7,500,39.5,500h500 c21.8,0,39.5-17.7,39.5-39.5V39.5C578.9,17.7,561.3,0,539.5,0z" style="stroke-opacity: 0;"/>
    <path d="M 539.957 0 L 39.957 0 C 18.157 0 0.457 17.7 0.457 39.5 L 0.457 460.6 C 0.457 482.3 18.157 500 39.957 500 L 539.957 500 C 561.757 500 579.457 482.3 579.457 460.5 L 579.457 39.5 C 579.357 17.7 561.757 0 539.957 0 Z" style="stroke-opacity: 0; fill: url('#gradient-1');"/>
  </g>
</svg>