<!DOCTYPE svg PUBLIC "-//W3C//DTD SVG 1.1//EN" "http://www.w3.org/Graphics/SVG/1.1/DTD/svg11.dtd">
<!-- Uploaded to: SVG Repo, www.svgrepo.com, Transformed by: SVG Repo Mixer Tools -->
<svg fill="#10244c" height="800px" width="800px" version="1.1" id="Layer_1" xmlns="http://www.w3.org/2000/svg" xmlns:xlink="http://www.w3.org/1999/xlink" viewBox="-49.12 -49.12 589.45 589.45" xml:space="preserve" stroke="#10244c" stroke-width="4.91213">
<g id="SVGRepo_bgCarrier" stroke-width="0"/>
<g id="SVGRepo_tracerCarrier" stroke-linecap="round" stroke-linejoin="round" stroke="#ffffff" stroke-width="39.29704"> <g> <polygon points="146.213,3.107 146.213,175.607 176.213,175.607 176.213,33.107 461.213,33.107 461.213,458.107 176.213,458.107 176.213,315.607 146.213,315.607 146.213,488.107 491.213,488.107 491.213,3.107 "/> <polygon points="318.713,260.607 318.713,230.607 57.427,230.607 91.82,196.213 70.607,175 0,245.607 70.607,316.213 91.82,295 57.426,260.607 "/> </g> </g>
<g id="SVGRepo_iconCarrier"> <g> <polygon points="146.213,3.107 146.213,175.607 176.213,175.607 176.213,33.107 461.213,33.107 461.213,458.107 176.213,458.107 176.213,315.607 146.213,315.607 146.213,488.107 491.213,488.107 491.213,3.107 "/> <polygon points="318.713,260.607 318.713,230.607 57.427,230.607 91.82,196.213 70.607,175 0,245.607 70.607,316.213 91.82,295 57.426,260.607 "/> </g> </g>
</svg>