<!DOCTYPE svg PUBLIC "-//W3C//DTD SVG 1.1//EN" "http://www.w3.org/Graphics/SVG/1.1/DTD/svg11.dtd">
<!-- Uploaded to: SVG Repo, www.svgrepo.com, Transformed by: SVG Repo Mixer Tools -->
<svg fill="#10244c" height="256px" width="256px" version="1.1" id="Capa_1" xmlns="http://www.w3.org/2000/svg" xmlns:xlink="http://www.w3.org/1999/xlink" viewBox="-49 -49 588.00 588.00" xml:space="preserve" stroke="#10244c" stroke-width="4.9">
<g id="SVGRepo_bgCarrier" stroke-width="0"/>
<g id="SVGRepo_tracerCarrier" stroke-linecap="round" stroke-linejoin="round" stroke="#ffffff" stroke-width="39.2"> <g> <circle cx="245" cy="78.611" r="78.611"/> <path d="M85.654,249.641c0,73.299,0,90.297,0,90.297s155.093,0,155.628,0L165.327,175.28 C165.327,175.28,85.654,176.342,85.654,249.641z"/> <path d="M324.673,175.28l-75.954,164.658h155.627c0,0,0-16.998,0-90.297C404.346,176.342,324.673,175.28,324.673,175.28z"/> <polygon points="245,175.28 190.291,175.28 245,296.383 299.709,175.28 "/> <polygon points="104.916,490 122.585,490 138.605,426.781 154.679,490 171.956,490 191.559,405.443 175.16,405.443 162.777,464.511 148.622,405.443 129.25,405.443 114.5,463.519 102.333,405.443 85.651,405.443 "/> <polygon points="220.896,463.519 208.728,405.443 192.046,405.443 211.31,490 228.98,490 245,426.781 261.074,490 278.351,490 297.954,405.443 281.556,405.443 269.172,464.511 255.018,405.443 235.645,405.443 "/> <polygon points="375.568,464.511 361.413,405.443 342.04,405.443 327.291,463.519 315.123,405.443 298.441,405.443 317.705,490 335.375,490 351.395,426.781 367.469,490 384.747,490 404.349,405.443 387.951,405.443 "/> </g> </g>
<g id="SVGRepo_iconCarrier"> <g> <circle cx="245" cy="78.611" r="78.611"/> <path d="M85.654,249.641c0,73.299,0,90.297,0,90.297s155.093,0,155.628,0L165.327,175.28 C165.327,175.28,85.654,176.342,85.654,249.641z"/> <path d="M324.673,175.28l-75.954,164.658h155.627c0,0,0-16.998,0-90.297C404.346,176.342,324.673,175.28,324.673,175.28z"/> <polygon points="245,175.28 190.291,175.28 245,296.383 299.709,175.28 "/> <polygon points="104.916,490 122.585,490 138.605,426.781 154.679,490 171.956,490 191.559,405.443 175.16,405.443 162.777,464.511 148.622,405.443 129.25,405.443 114.5,463.519 102.333,405.443 85.651,405.443 "/> <polygon points="220.896,463.519 208.728,405.443 192.046,405.443 211.31,490 228.98,490 245,426.781 261.074,490 278.351,490 297.954,405.443 281.556,405.443 269.172,464.511 255.018,405.443 235.645,405.443 "/> <polygon points="375.568,464.511 361.413,405.443 342.04,405.443 327.291,463.519 315.123,405.443 298.441,405.443 317.705,490 335.375,490 351.395,426.781 367.469,490 384.747,490 404.349,405.443 387.951,405.443 "/> </g> </g>
</svg>