<?xml version="1.0" encoding="utf-8"?>
<svg fill="#ffffff" height="256px" width="256px" version="1.1" id="Layer_1" viewBox="-48.97 -48.97 587.60 587.60" stroke="#ffffff" xmlns="http://www.w3.org/2000/svg">
  <defs>
    <radialGradient gradientUnits="userSpaceOnUse" cx="-3.171" cy="439.137" r="289.5" id="gradient-1" gradientTransform="matrix(0.678924, 0.703266, -0.777716, 0.750799, 590.915013, -81.595828)">
      <stop offset="0" style="stop-color: rgb(231, 0, 85); stop-opacity: 0.34;"/>
      <stop offset="1" style="stop-opacity: 0; stop-color: rgba(231, 0, 85, 0);"/>
    </radialGradient>
  </defs>
  <g id="SVGRepo_bgCarrier" stroke-width="0" style=""/>
  <g id="SVGRepo_tracerCarrier" stroke-linecap="round" stroke-linejoin="round" stroke="#e70056" stroke-width="39.17264">
    <path d="M 494.83 -65.97 L -5.17 -65.97 C -26.97 -65.97 -47.99 -70.184 -47.99 -48.384 L -47.991 539.398 C -75.564 854.373 -68.806 539.617 -47.006 539.617 L 537.995 539.618 C 559.795 539.618 536.987 561.761 536.987 539.961 L 539.643 -49.713 C 539.543 -71.513 516.63 -65.97 494.83 -65.97 Z" style="stroke-opacity: 0; fill: url('#gradient-1'); stroke: rgb(231, 0, 85);"/>
  </g>
  <g id="SVGRepo_iconCarrier">
    <path d="M 485.314 252.34 L 489.659 244.829 L 485.314 237.318 C 461.34 195.878 426.868 161.121 385.623 136.807 C 343.15 111.769 294.506 98.527 244.942 98.507 C 244.905 98.507 244.868 98.506 244.83 98.506 C 244.792 98.506 244.756 98.507 244.718 98.507 C 208.708 98.521 173.187 105.522 140.162 118.948 L 27.937 6.723 L 6.724 27.936 L 111.408 132.62 C 108.932 133.978 106.473 135.371 104.037 136.807 C 62.792 161.121 28.319 195.877 4.346 237.318 L 0.001 244.829 L 4.346 252.34 C 28.32 293.78 62.792 328.537 104.037 352.851 C 146.51 377.889 195.154 391.131 244.718 391.151 C 244.755 391.151 244.792 391.152 244.83 391.152 C 244.868 391.152 244.904 391.151 244.942 391.151 C 280.952 391.137 316.473 384.136 349.498 370.71 L 461.724 482.936 L 482.937 461.723 L 378.252 357.038 C 380.728 355.68 383.187 354.287 385.623 352.851 C 426.868 328.537 461.341 293.781 485.314 252.34 Z M 454.82 244.829 C 431.88 281.416 400.011 310.859 363.029 330.973 C 380.702 306.789 391.153 277.009 391.153 244.829 C 391.153 212.649 380.703 182.869 363.029 158.685 C 400.011 178.799 431.88 208.242 454.82 244.829 Z M 244.83 361.152 C 244.794 361.152 244.759 361.151 244.723 361.151 C 180.631 361.093 128.506 308.934 128.506 244.829 C 128.506 218.154 137.537 193.553 152.695 173.907 L 200.51 221.722 C 196.889 228.638 194.829 236.495 194.829 244.828 C 194.829 272.398 217.259 294.828 244.829 294.828 C 253.162 294.828 261.019 292.768 267.935 289.147 L 315.75 336.962 C 296.131 352.099 271.569 361.125 244.935 361.149 C 244.901 361.151 244.866 361.152 244.83 361.152 Z M 244.83 128.506 C 244.866 128.506 244.901 128.507 244.937 128.507 C 309.029 128.565 361.154 180.724 361.154 244.829 C 361.154 271.504 352.123 296.105 336.965 315.751 L 289.15 267.936 C 292.771 261.02 294.831 253.163 294.831 244.83 C 294.831 217.26 272.401 194.83 244.831 194.83 C 236.498 194.83 228.641 196.89 221.725 200.511 L 173.91 152.696 C 193.529 137.559 218.091 128.533 244.725 128.509 C 244.759 128.507 244.794 128.506 244.83 128.506 Z M 34.84 244.829 C 57.78 208.242 89.649 178.799 126.631 158.685 C 108.958 182.869 98.507 212.649 98.507 244.829 C 98.507 277.009 108.957 306.789 126.631 330.973 C 89.649 310.859 57.78 281.416 34.84 244.829 Z" style="stroke-width: 9px; fill: rgb(37, 37, 42);"/>
  </g>
</svg>