<!DOCTYPE svg PUBLIC "-//W3C//DTD SVG 1.1//EN" "http://www.w3.org/Graphics/SVG/1.1/DTD/svg11.dtd">
<!-- Uploaded to: SVG Repo, www.svgrepo.com, Transformed by: SVG Repo Mixer Tools -->
<svg fill="#10244c" height="256px" width="256px" version="1.1" id="Layer_1" xmlns="http://www.w3.org/2000/svg" xmlns:xlink="http://www.w3.org/1999/xlink" viewBox="-38.21 -38.21 458.56 458.56" xml:space="preserve" stroke="#10244c" stroke-width="3.8213600000000008">
<g id="SVGRepo_bgCarrier" stroke-width="0"/>
<g id="SVGRepo_tracerCarrier" stroke-linecap="round" stroke-linejoin="round" stroke="#ffffff" stroke-width="30.570880000000006"> <g> <path d="M382.136,172.925V8.469L318.51,71.791c-14.794-16.806-32.669-30.909-52.464-41.261 c-25.785-13.484-54.891-20.611-84.171-20.611C81.588,9.919,0,91.507,0,191.793s81.588,181.874,181.874,181.874 c34.777,0,68.584-9.851,97.768-28.488c28.394-18.133,51.175-43.703,65.881-73.944l-26.979-13.119 c-25.66,52.77-78.029,85.551-136.669,85.551C98.13,343.667,30,275.536,30,191.793S98.13,39.919,181.874,39.919 c44.381,0,86.61,19.638,115.33,53.076l-80.314,79.93H382.136z M352.136,142.925h-62.573l62.573-62.274V142.925z"/> </g> </g>
<g id="SVGRepo_iconCarrier"> <g> <path d="M382.136,172.925V8.469L318.51,71.791c-14.794-16.806-32.669-30.909-52.464-41.261 c-25.785-13.484-54.891-20.611-84.171-20.611C81.588,9.919,0,91.507,0,191.793s81.588,181.874,181.874,181.874 c34.777,0,68.584-9.851,97.768-28.488c28.394-18.133,51.175-43.703,65.881-73.944l-26.979-13.119 c-25.66,52.77-78.029,85.551-136.669,85.551C98.13,343.667,30,275.536,30,191.793S98.13,39.919,181.874,39.919 c44.381,0,86.61,19.638,115.33,53.076l-80.314,79.93H382.136z M352.136,142.925h-62.573l62.573-62.274V142.925z"/> </g> </g>
</svg>